<?xml version="1.0" encoding="utf-8"?>
<!-- Generator: Adobe Illustrator 16.0.0, SVG Export Plug-In . SVG Version: 6.00 Build 0)  -->
<!DOCTYPE svg PUBLIC "-//W3C//DTD SVG 1.1//EN" "http://www.w3.org/Graphics/SVG/1.1/DTD/svg11.dtd">
<svg version="1.1" id="Layer_1" xmlns="http://www.w3.org/2000/svg" xmlns:xlink="http://www.w3.org/1999/xlink" x="0px" y="0px"
	 width="145px" height="175px" viewBox="0 0 145 175" enable-background="new 0 0 145 175" xml:space="preserve">
<g>
	<g>
		<g>
			<path fill="#A7804F" d="M52.703,145.157c-3.304-1.95-6.016-0.946-7.334,0.505c-1.339,1.475-1.494,3.482-0.391,5.001
				c1.337,1.84,3.654,2.842,5.274,2.278c1.117-0.387,1.726-1.439,1.669-2.895c-0.017-0.425-0.379-0.746-0.802-0.742
				c-0.429,0.016-0.761,0.377-0.744,0.805c0.043,1.138-0.464,1.313-0.63,1.371c-0.853,0.295-2.537-0.381-3.517-1.729
				c-0.763-1.05-0.407-2.289,0.286-3.05c1.482-1.636,3.836-1.138,5.401-0.214c2.477,1.461,3.887,4.865,3.142,7.593
				c-0.633,2.326-2.682,3.604-5.764,3.604c-3.065,0-5.309-0.697-6.669-2.076c-0.006-0.006-0.014-0.012-0.021-0.021
				c-0.714-0.733-1.087-1.735-1.065-2.759c0-0.023,0-0.038,0-0.046v-48.489c0-0.429-0.346-0.773-0.773-0.773
				c-0.037,0-0.073,0.006-0.109,0.012c-0.036-0.006-0.071-0.012-0.109-0.012c-0.427,0-0.772,0.346-0.772,0.773v48.489
				c0,0.008,0,0.021,0,0.046c0.021,1.023-0.353,2.025-1.066,2.759c-0.008,0.009-0.015,0.015-0.021,0.021
				c-1.36,1.379-3.604,2.076-6.668,2.076c-3.083,0-5.131-1.278-5.766-3.604c-0.743-2.728,0.666-6.132,3.143-7.593
				c1.565-0.924,3.919-1.422,5.402,0.214c0.69,0.761,1.048,2,0.285,3.05c-0.98,1.348-2.666,2.023-3.517,1.729
				c-0.167-0.058-0.675-0.233-0.63-1.371c0.016-0.428-0.316-0.789-0.743-0.805c-0.423-0.004-0.787,0.317-0.804,0.742
				c-0.056,1.454,0.553,2.508,1.669,2.895c1.621,0.562,3.938-0.438,5.275-2.278c1.104-1.519,0.946-3.526-0.391-5.001
				c-1.319-1.451-4.03-2.455-7.333-0.505c-3.091,1.821-4.781,5.922-3.851,9.334c0.822,3.015,3.47,4.743,7.259,4.743
				c3.494,0,6.107-0.853,7.769-2.535c0.358-0.363,0.642-0.738,0.868-1.105c0.227,0.367,0.509,0.742,0.869,1.105
				c1.661,1.684,4.274,2.535,7.77,2.535c3.788,0,6.435-1.729,7.257-4.743C57.484,151.079,55.793,146.979,52.703,145.157"/>
			<path fill="#332110" d="M53.884,23.207c-2.721-0.522-6.066-3.242-8.786-5.229c-1.657-1.212-1.839-4.29-1.773-6.579
				c0.041-1.497-1.171-2.729-2.668-2.729c-1.497,0-2.71,1.232-2.666,2.729c0.062,2.29-0.117,5.367-1.774,6.579
				c-2.72,1.987-6.065,4.707-8.785,5.229c-2.72,0.522-4.916,1.255-4.602,4.811c0.313,3.556,5.333,4.184,4.915,6.379
				c-0.4,2.105-0.822,5.267,2.236,7.827c0.293,0.245,0.531,0.551,0.695,0.897c0.646,1.361,2.192,4.876,2.192,7.277
				c0,3.034-7.634,10.249-7.111,24.16c0.489,13.035,6.858,18.262,7.657,30.058c0.094,1.393,1.264,2.467,2.66,2.467h4.527h0.111
				h4.527c1.395,0,2.562-1.074,2.658-2.467c0.8-11.796,7.167-17.022,7.657-30.058c0.523-13.911-7.111-21.126-7.111-24.16
				c0-2.4,1.549-5.916,2.192-7.277c0.164-0.347,0.403-0.652,0.697-0.897c3.059-2.561,2.635-5.722,2.235-7.827
				c-0.419-2.195,4.602-2.823,4.916-6.379C58.799,24.462,56.602,23.729,53.884,23.207"/>
			<path fill="#FDF7E2" d="M27.727,34.532c-0.42,2.208-0.864,5.574,2.67,8.203c0,0,2.481,4.837,2.481,7.886
				c0,3.049-7.675,10.305-7.149,24.291c0.271,7.217,2.333,12.054,4.265,16.925h21.403c1.932-4.871,3.993-9.708,4.265-16.925
				c0.525-13.986-7.149-21.242-7.149-24.291c0-3.049,2.481-7.886,2.481-7.886c3.533-2.629,3.09-5.995,2.67-8.203l0.19-0.725
				c3.633-0.208,5.725-3.58,6.465-5.042c0.178-0.352,0.062-0.766-0.25-1.008c-1.788-1.384-0.927-4.175-2.646-4.175
				c-1.877,0-3.569-1.195-3.569-1.195s-0.277,0.25-0.902,0.607c-1.555,0.891-5.27,2.444-12.257,2.447
				c-6.985-0.003-10.701-1.557-12.256-2.447c-0.626-0.357-0.902-0.607-0.902-0.607s-1.693,1.195-3.569,1.195
				c-1.719,0-0.858,2.791-2.646,4.175c-0.312,0.242-0.428,0.656-0.25,1.008c0.741,1.463,2.832,4.834,6.465,5.042L27.727,34.532z"/>
			<g opacity="0.5">
				<g>
					<g>
						<defs>
							<rect id="SVGID_1_" x="9.214" y="51.498" width="62.924" height="54.284"/>
						</defs>
						<clipPath id="SVGID_2_">
							<use xlink:href="#SVGID_1_"  overflow="visible"/>
						</clipPath>
						<path clip-path="url(#SVGID_2_)" fill="#FFF6D7" d="M40.65,105.779c-20.162,0-27.904-3.293-30.873-5.746
							c-0.89-0.735-0.692-2.157,0.357-2.637c2.016-0.916,5.124-4.549,8.072-16.979C23.121,59.701,32.7,51.499,32.7,51.499h15.951
							c0,0,9.58,8.203,14.493,28.919c2.948,12.43,6.058,16.062,8.072,16.979c1.052,0.479,1.246,1.9,0.356,2.637
							c-2.969,2.453-10.709,5.746-30.871,5.746H40.65L40.65,105.779z"/>
					</g>
				</g>
			</g>
			<g opacity="0.5">
				<g>
					<g>
						<defs>
							<rect id="SVGID_3_" x="7.935" y="51.498" width="65.521" height="47.206"/>
						</defs>
						<clipPath id="SVGID_4_">
							<use xlink:href="#SVGID_3_"  overflow="visible"/>
						</clipPath>
						<path clip-path="url(#SVGID_4_)" fill="#F2E8C0" d="M40.564,98.703c-25.522,0-31.268-7.348-32.554-10.391
							c-0.201-0.476,0.004-1.039,0.482-1.233c1.231-0.499,3.997-3.24,9.489-15.196C26.223,53.951,32.7,51.498,32.7,51.498h15.988
							c0,0,6.478,2.453,14.718,20.385c5.492,11.956,8.257,14.697,9.489,15.196c0.479,0.195,0.685,0.759,0.483,1.233
							c-1.285,3.043-7.03,10.391-32.554,10.391H40.564z"/>
					</g>
				</g>
			</g>
			<g opacity="0.67">
				<g>
					<g>
						<defs>
							<rect id="SVGID_5_" x="17.208" y="50.621" width="47.233" height="17.918"/>
						</defs>
						<clipPath id="SVGID_6_">
							<use xlink:href="#SVGID_5_"  overflow="visible"/>
						</clipPath>
						<path clip-path="url(#SVGID_6_)" fill="#F2E9C5" d="M44.641,55.397c0,0-0.808,7.728-8.4,10.411
							c-7.285,2.573-10.708,4.341-18.675,0.516c-0.44-0.212-0.483-0.824-0.071-1.092c0.907-0.593,2.27-1.617,3.25-2.956
							c1.602-2.186,5.991-11.594,12.117-11.656h15.632c0,0,4.292,0.247,8.702,4.777c3.903,4.012,4.858,5.686,6.818,6.32
							c0.41,0.132,0.56,0.635,0.297,0.975c-1.268,1.642-4.886,5.082-11.431,2.142C44.507,61.072,44.641,55.397,44.641,55.397"/>
					</g>
				</g>
			</g>
			<path fill="#E7D89C" d="M48.66,51.785H32.729c-0.119,0-0.211-0.109-0.187-0.227l0.181-0.932c0.018-0.089,0.097-0.154,0.188-0.154
				h15.573c0.092,0,0.169,0.064,0.188,0.155l0.177,0.931C48.87,51.676,48.78,51.785,48.66,51.785"/>
			<path fill="#D2C076" d="M46.932,56.718c0.068-0.047,0.133-0.097,0.191-0.153c0.165-0.158,0.307-0.343,0.414-0.552
				c0.221-0.429,0.262-0.849,0.176-1.346c-0.039-0.17-0.143-0.401-0.143-0.401c-0.008-0.014-0.014-0.028-0.021-0.043
				c0.366-0.278,0.668-0.643,0.837-1.044C48.41,53.12,48.432,53.06,48.449,53c0.104-0.304,0.088-0.604,0.026-0.863
				C48.3,51.422,47.729,50.865,47,50.754c-0.004,0-0.009-0.001-0.013-0.001c0.015-0.089,0.021-0.179,0.021-0.271
				c0-0.991-0.809-1.798-1.803-1.798c-0.91,0-1.664,0.676-1.786,1.55c-0.013-0.007-0.026-0.013-0.041-0.019
				c-0.706-0.295-1.556-0.016-1.937,0.635c-0.374,0.641-0.18,1.477,0.428,1.914c-0.1,0.188-0.157,0.388-0.174,0.592
				c-0.587,0.361-0.931,1.057-0.864,1.76c0.068,0.714,0.553,1.324,1.233,1.554c0.192,0.063,0.391,0.096,0.587,0.096
				c0.5,0,0.988-0.202,1.341-0.566c0.083,0.128,0.182,0.247,0.297,0.354c0.389,0.369,0.905,0.576,1.433,0.576
				c0.034,0,0.07-0.001,0.104-0.002c0.297-0.017,0.581-0.098,0.837-0.234C46.714,56.869,46.845,56.779,46.932,56.718"/>
			<path fill="#E7D58A" d="M48.172,51.645c-0.233-0.352-0.652-0.59-1.106-0.638c-0.192,0.462-0.558,0.846-1.026,1.051
				c0.115,0.234,0.179,0.498,0.179,0.779c0,0.311-0.079,0.603-0.219,0.853c0.008,0.003,0.016,0.007,0.021,0.011
				c0.291,0.17,0.512,0.417,0.641,0.702c0.69-0.183,1.358-0.741,1.627-1.378C48.431,52.688,48.524,52.175,48.172,51.645"/>
			<path fill="#E7D58A" d="M44.248,51.192c0.119-0.03,0.243-0.047,0.372-0.047c0.453,0,0.862,0.201,1.154,0.522
				c0.579-0.216,0.979-0.779,0.979-1.404c0-0.825-0.676-1.498-1.505-1.498c-0.828,0-1.503,0.672-1.503,1.498
				c0,0.008-0.001,0.014-0.001,0.022C44.006,50.527,44.187,50.847,44.248,51.192"/>
			<path fill="#E7D58A" d="M45.757,52.836c0-0.677-0.511-1.228-1.137-1.228c-0.627,0-1.136,0.551-1.136,1.228
				c0,0.153,0.025,0.3,0.072,0.435c0.109-0.441,0.508-0.769,0.983-0.769c0.558,0,1.012,0.455,1.012,1.013c0,0.009,0,0.017,0,0.025
				C45.681,53.341,45.757,53.098,45.757,52.836"/>
			<path fill="#E7D58A" d="M43.989,53.515c0,0.233,0.147,0.434,0.353,0.514c0.073,0.02,0.148,0.032,0.226,0.035
				c0.291-0.015,0.522-0.255,0.522-0.549c0-0.303-0.247-0.551-0.55-0.551C44.235,52.964,43.989,53.212,43.989,53.515"/>
			<path fill="#E7D58A" d="M41.881,52.376c0.383-0.415,0.958-0.672,1.576-0.7c0.104-0.114,0.221-0.214,0.349-0.295
				c-0.028-0.421-0.314-0.81-0.727-0.983c-0.55-0.229-1.238-0.005-1.533,0.501C41.256,51.392,41.409,52.036,41.881,52.376"/>
			<path fill="#E7D58A" d="M41.719,54.499c-0.122-0.175-0.206-0.365-0.255-0.561c-0.368,0.323-0.571,0.825-0.524,1.333
				c0.058,0.598,0.463,1.108,1.032,1.3c0.628,0.21,1.329-0.003,1.729-0.518c-0.075-0.203-0.117-0.417-0.127-0.638
				C42.817,55.407,42.112,55.065,41.719,54.499"/>
			<path fill="#E7D58A" d="M44.62,54.527c-0.014,0-0.026-0.001-0.04-0.001c-0.013,0.001-0.027,0.001-0.04,0.001
				c-0.125,0-0.245-0.022-0.354-0.063c-0.671-0.202-1.164-0.854-1.164-1.627c0-0.232,0.045-0.454,0.124-0.656
				c-0.442,0.093-0.827,0.333-1.056,0.673c-0.285,0.421-0.282,0.963,0.009,1.38c0.354,0.51,1.039,0.788,1.747,0.708
				c0.399-0.046,0.739-0.197,0.986-0.431C44.764,54.522,44.691,54.527,44.62,54.527"/>
			<path fill="#E7D58A" d="M46.332,55.012c0-0.373-0.204-0.714-0.545-0.912c-0.022-0.013-0.041-0.029-0.056-0.047
				c-0.041,0.04-0.084,0.079-0.129,0.116c-0.002,0.008-0.005,0.017-0.009,0.025c-0.245,0.614-0.805,1.045-1.515,1.179
				c0.162,0.422,0.599,0.715,1.092,0.715C45.812,56.088,46.332,55.604,46.332,55.012"/>
			<path fill="#E7D58A" d="M46.784,54.849c0.006,0.054,0.01,0.107,0.01,0.163c0,0.849-0.729,1.539-1.622,1.539
				c-0.276,0-0.542-0.067-0.772-0.188c0.051,0.064,0.107,0.127,0.169,0.185c0.36,0.344,0.846,0.524,1.333,0.498
				c0.62-0.031,1.188-0.401,1.477-0.965c0.251-0.485,0.261-1.017,0.033-1.485C47.21,54.706,46.999,54.792,46.784,54.849"/>
			<path fill="#FDF7E2" d="M40.656,19.878c-0.43,0-0.776,0.347-0.776,0.776c0,0.43,0.347,0.777,0.776,0.777
				c0.429,0,0.776-0.347,0.776-0.777C41.433,20.226,41.086,19.878,40.656,19.878"/>
			<path fill="#FDF7E2" d="M42.129,19.34c-0.296,0-0.538,0.241-0.538,0.539c0,0.296,0.242,0.537,0.538,0.537
				c0.298,0,0.538-0.241,0.538-0.537C42.667,19.581,42.427,19.34,42.129,19.34"/>
			<path fill="#FDF7E2" d="M43.054,18.729c-0.213,0-0.388,0.174-0.388,0.387c0,0.212,0.175,0.386,0.388,0.386
				c0.211,0,0.386-0.174,0.386-0.386C43.439,18.903,43.265,18.729,43.054,18.729"/>
			<path fill="#FDF7E2" d="M39.184,19.34c-0.296,0-0.538,0.241-0.538,0.539c0,0.296,0.242,0.537,0.538,0.537
				c0.297,0,0.538-0.241,0.538-0.537C39.722,19.581,39.48,19.34,39.184,19.34"/>
			<path fill="#FDF7E2" d="M38.261,18.729c-0.213,0-0.386,0.174-0.386,0.387c0,0.212,0.173,0.386,0.386,0.386
				c0.213,0,0.386-0.174,0.386-0.386C38.646,18.903,38.474,18.729,38.261,18.729"/>
			<path fill="#FDF7E2" d="M44.658,17.484c-0.059-0.043-0.143-0.033-0.188,0.026c-0.243,0.326-0.537,0.606-0.875,0.836
				c-0.061,0.041-0.076,0.123-0.035,0.183c0.026,0.039,0.068,0.058,0.11,0.058c0.025,0,0.053-0.006,0.074-0.021
				c0.362-0.246,0.677-0.547,0.938-0.896C44.729,17.612,44.717,17.529,44.658,17.484"/>
			<path fill="#FDF7E2" d="M36.842,17.511c-0.044-0.058-0.128-0.069-0.188-0.026c-0.058,0.043-0.069,0.127-0.025,0.187
				c0.263,0.348,0.577,0.65,0.938,0.896c0.022,0.016,0.049,0.022,0.074,0.022c0.042,0,0.085-0.02,0.11-0.058
				c0.041-0.061,0.025-0.143-0.035-0.186C37.381,18.118,37.085,17.836,36.842,17.511"/>
			<path fill="#A7804F" d="M108.938,152.348h-1.191c-0.955,0-1.729-0.774-1.729-1.728V89.326c0-0.008-0.004-0.014-0.012-0.014
				h-4.402c-0.006,0-0.012,0.006-0.012,0.014v61.294c0,0.952-0.773,1.728-1.726,1.728h-1.194c-1.232,0-2.314,0.928-2.387,2.157
				c-0.081,1.336,0.979,2.444,2.297,2.444h10.445c1.318,0,2.379-1.108,2.298-2.444C111.254,153.275,110.172,152.348,108.938,152.348
				"/>
			<path fill="#332110" d="M123.282,30c0.884-3.364-0.709-7.613-4.958-8.499c-2.502-0.521-5.571-2.025-7.672-3.174
				c-1.493-0.816-2.391-2.41-2.326-4.111c0.001-0.035,0.002-0.068,0.004-0.101c0.089-2.544-1.949-4.654-4.493-4.654h-0.062
				c-2.545,0-4.584,2.11-4.493,4.654c0.002,0.033,0.003,0.066,0.004,0.101c0.063,1.701-0.833,3.294-2.326,4.111
				c-2.101,1.148-5.17,2.653-7.672,3.174c-4.25,0.886-5.845,5.135-4.958,8.499c0.885,3.364,3.895,7.967,6.02,11.686
				c2.125,3.719,1.416,13.81,0.532,16.112c-0.888,2.302-3.719,19.83-2.834,26.204c0.81,5.821,12.839,7.654,14.921,7.93
				c0.194,0.026,0.389,0.039,0.584,0.039h0.506c0.196,0,0.392-0.013,0.586-0.039c2.082-0.274,14.11-2.107,14.92-7.93
				c0.886-6.374-1.948-23.902-2.834-26.204c-0.885-2.303-1.592-12.394,0.533-16.112C119.387,37.967,122.396,33.364,123.282,30"/>
			<path fill="#3C2D27" d="M118.298,71.191l-14.589,1.417h-0.335l-14.591-1.417c0,0-1.084,10.922-0.167,25.348
				c0.918,14.423,2.085,40.188,2.085,40.188l0.333,20.762c0.646,0.312,4.519,2.396,12.508,0.834
				c7.671,1.502,12.506-0.834,12.506-0.834l0.333-20.762c0,0,1.168-25.765,2.085-40.188
				C119.383,82.113,118.298,71.191,118.298,71.191"/>
			<path fill="#332522" d="M102.598,72.608h-0.334l-0.425-0.041l1.554,85.766c0.002,0,0.225-0.017,0.229-0.017l-0.905-66.58
				l1.435-1.004c0.686-0.479,1.096-1.264,1.096-2.101v-16.28L102.598,72.608z"/>
			<path fill="#332522" d="M112.292,71.811c-0.375,13.955-2.021,73.837-2.381,87.013c0.274-0.014,0.54-0.033,0.799-0.059
				c0.372-13.602,2.011-73.285,2.38-87.032L112.292,71.811z"/>
			<path fill="#332522" d="M93.991,71.733c0.368,13.747,2.008,73.431,2.382,87.033c0.259,0.023,0.523,0.043,0.799,0.06
				c-0.361-13.179-2.007-73.06-2.381-87.015L93.991,71.733z"/>
			<path fill="#EAD9B5" d="M84.529,22.248L84.529,22.248c0,0-4.168,1.667-3.584,9.589c0.584,7.921-0.057,25.18-0.057,25.18
				l-1.361,22.346c0,0,2.834,2.335,8.588,1.5c0,0,1.335-17.342,1.418-25.847c0.072-7.403-0.739-24.272-2.768-30.309
				C86.398,23.609,85.59,22.715,84.529,22.248"/>
			<path fill="#E4CFA8" d="M83.697,79.501c0,0-1.811-0.145-4.217-1.312c-0.248-0.12-0.537,0.058-0.537,0.332v5.69
				c0,0.028,0.011,0.053,0.031,0.073c0.24,0.235,1.959,1.395,4.723,1.663c3.033,0.297,4.385-0.242,4.929-0.447
				c0.146-0.055,0.239-0.193,0.239-0.35v-5.688c0-0.249-0.239-0.427-0.479-0.355C87.699,79.315,86.229,79.614,83.697,79.501"/>
			<g>
				<g>
					<g>
						<defs>
							<rect id="SVGID_7_" x="78.943" y="80.16" width="9.923" height="3.097"/>
						</defs>
						<clipPath id="SVGID_8_">
							<use xlink:href="#SVGID_7_"  overflow="visible"/>
						</clipPath>
						<path clip-path="url(#SVGID_8_)" fill="#EAD9B5" d="M81.368,81.111c-0.701-0.218-1.526-0.523-2.425-0.951v1.749
							c2.636,1.14,4.55,1.308,4.644,1.314l0.026,0.002c0.463,0.02,0.916,0.03,1.352,0.03c1.766,0,3.039-0.17,3.9-0.353v-1.636
							c-0.715,0.181-1.971,0.395-3.9,0.395h-0.012C83.738,81.662,82.529,81.473,81.368,81.111"/>
					</g>
				</g>
			</g>
			<path fill="#3C2D27" d="M80.861,83.614c0,0.462-0.26,0.833-0.584,0.833c-0.32,0-0.582-0.371-0.582-0.833
				c0-0.46,0.262-0.833,0.582-0.833C80.602,82.781,80.861,83.154,80.861,83.614"/>
			<path fill="#EAD9B5" d="M123.081,22.248L123.081,22.248c0,0,4.168,1.667,3.585,9.589c-0.583,7.921,0.057,25.18,0.057,25.18
				l1.361,22.346c0,0-2.834,2.335-8.587,1.5c0,0-1.336-17.342-1.418-25.847c-0.074-7.403,0.737-24.272,2.765-30.309
				C121.213,23.609,122.021,22.715,123.081,22.248"/>
			<path fill="#E4CFA8" d="M123.915,79.501c0,0,1.81-0.145,4.212-1.31c0.249-0.121,0.541,0.059,0.541,0.336v5.685
				c0,0.028-0.012,0.053-0.029,0.073c-0.242,0.235-1.963,1.395-4.724,1.663c-3.032,0.297-4.381-0.242-4.927-0.445
				c-0.146-0.056-0.242-0.196-0.242-0.353v-5.683c0-0.253,0.242-0.431,0.484-0.359C119.919,79.316,121.387,79.614,123.915,79.501"/>
			<g>
				<g>
					<g>
						<defs>
							<rect id="SVGID_9_" x="118.746" y="80.16" width="9.921" height="3.097"/>
						</defs>
						<clipPath id="SVGID_10_">
							<use xlink:href="#SVGID_9_"  overflow="visible"/>
						</clipPath>
						<path clip-path="url(#SVGID_10_)" fill="#EAD9B5" d="M126.243,81.111c0.702-0.218,1.526-0.523,2.425-0.951v1.749
							c-2.637,1.14-4.55,1.308-4.643,1.314l-0.028,0.002c-0.461,0.02-0.915,0.03-1.351,0.03c-1.767,0-3.039-0.17-3.9-0.353v-1.636
							c0.715,0.181,1.97,0.395,3.9,0.395h0.013C123.874,81.662,125.083,81.473,126.243,81.111"/>
					</g>
				</g>
			</g>
			<path fill="#3C2D27" d="M126.749,83.614c0,0.462,0.263,0.833,0.585,0.833c0.32,0,0.583-0.371,0.583-0.833
				c0-0.46-0.263-0.833-0.583-0.833C127.012,82.781,126.749,83.154,126.749,83.614"/>
			<path fill="#EEE1C9" d="M120.134,68.94c0.5-0.751,0.417-1.167-0.251-2.252c-0.667-1.084-0.417-6.586-0.833-10.088
				c-0.417-3.502,0.25-15.926,0.25-15.926c6.837-6.17,5.003-18.177,3.418-18.427c-1.584-0.249-3.418-1.667-6.087-2.251
				c-2.668-0.583-7.004-2.584-7.004-2.584l-5.158,4.443l-6.848-4.443c0,0-4.335,2.001-7.004,2.584
				c-2.668,0.584-4.503,2.002-6.086,2.251c-1.443,0.228-3.094,10.207,1.787,16.647c1.113,1.468,1.709,3.262,1.787,5.102
				C88.273,47.934,88.479,54.26,88.2,56.6c-0.418,3.502-0.167,9.004-0.835,10.088c-0.668,1.085-0.75,1.501-0.25,2.252
				s-1.667,1.5,1,2.669c2.669,1.166,4.67,2.567,15.51,2.567c10.838,0,12.839-1.401,15.508-2.567
				C121.8,70.44,119.633,69.691,120.134,68.94"/>
			<path fill="#F8ECE0" d="M102.277,20.433v53.734c0.436,0.006,0.88,0.008,1.348,0.008c0.467,0,0.912-0.002,1.348-0.008V21.422
				l-0.502,0.433L102.277,20.433z"/>
			<path fill="#EAD9B5" d="M99.586,13.595c-0.316-0.334-0.863-0.281-1.105,0.11l-2.713,3.738c-0.195,0.271-0.188,0.638,0.021,0.899
				l3.696,4.649c0.275,0.286,0.734,0.289,1.013,0.004l1.812-1.86c1.256-1.288,1.269-3.336,0.029-4.642L99.586,13.595z"/>
			<path fill="#EAD9B5" d="M111.48,17.443l-2.711-3.738c-0.244-0.391-0.791-0.445-1.107-0.11l-2.751,2.899
				c-1.238,1.305-1.226,3.354,0.03,4.642l1.811,1.86c0.277,0.285,0.736,0.282,1.014-0.004l3.695-4.649
				C111.669,18.081,111.677,17.714,111.48,17.443"/>
			<path fill="#3C2D27" d="M107.146,17.996l-3.521,2.424l-3.523-2.424c-0.383-0.264-0.902,0.01-0.902,0.476v4.911
				c0,0.466,0.521,0.74,0.902,0.476l3.523-2.424l3.521,2.424c0.383,0.264,0.904-0.01,0.904-0.476v-4.911
				C108.052,18.006,107.529,17.732,107.146,17.996"/>
			<path fill="#332110" d="M104.837,20.927c0,0.668-0.542,1.209-1.213,1.209c-0.669,0-1.211-0.541-1.211-1.209
				c0-0.668,0.542-1.209,1.211-1.209C104.295,19.718,104.837,20.259,104.837,20.927"/>
			<path fill="#D3BF6E" d="M110.777,74.984c0,0.806,0.652,1.46,1.461,1.46c0.806,0,1.461-0.654,1.461-1.46
				c0-0.5,0.001-0.998,0.003-1.492c-0.827,0.151-1.79,0.284-2.923,0.388C110.779,74.248,110.777,74.615,110.777,74.984"/>
			<path fill="#E7D58A" d="M116.812,19.972c-0.576-0.125-1.23-0.318-1.903-0.542c-1.214,7.533-4.054,27.95-4.13,54.45
				c1.134-0.104,2.096-0.236,2.923-0.388c0.103-25.769,2.823-45.651,4.04-53.276C117.443,20.125,117.135,20.043,116.812,19.972"/>
			<path fill="#332110" d="M112.831,75.025c0,0.354-0.252,0.646-0.565,0.646c-0.312,0-0.565-0.291-0.565-0.646
				c0-0.356,0.253-0.646,0.565-0.646C112.579,74.379,112.831,74.669,112.831,75.025"/>
			<path fill="#E7D58A" d="M90.798,19.972c-0.319,0.071-0.63,0.154-0.929,0.244c1.218,7.625,3.938,27.508,4.04,53.276
				c0.827,0.151,1.789,0.284,2.923,0.388c-0.077-26.5-2.918-46.917-4.13-54.45C92.029,19.653,91.375,19.846,90.798,19.972"/>
			<path fill="#D3BF6E" d="M93.913,74.984c0,0.806,0.653,1.46,1.461,1.46c0.806,0,1.46-0.654,1.46-1.46
				c0-0.369-0.001-0.736-0.002-1.104c-1.134-0.104-2.096-0.236-2.922-0.388C93.912,73.986,93.913,74.484,93.913,74.984"/>
			<path fill="#332110" d="M95.836,75.025c0,0.354-0.253,0.646-0.566,0.646c-0.312,0-0.564-0.291-0.564-0.646
				c0-0.356,0.252-0.646,0.564-0.646C95.583,74.379,95.836,74.669,95.836,75.025"/>
		</g>
	</g>
</g>
</svg>
